<svg id="Capa_1" enable-background="new 0 0 512 512" height="512" viewBox="0 0 512 512" width="512" xmlns="http://www.w3.org/2000/svg"><g><path d="m179.81 456c0 8.28-6.72 15-15 15h-138.76c-8.28 0-15-6.72-15-15s6.72-15 15-15h138.76c8.28 0 15 6.72 15 15z" fill="#fed843"/><path d="m179.81 456c0 8.28-6.72 15-15 15h-69.38v-30h69.38c8.28 0 15 6.72 15 15z" fill="#ffbe00"/><path d="m179.81 56c0 8.28-6.72 15-15 15h-138.76c-8.28 0-15-6.72-15-15s6.72-15 15-15h138.76c8.28 0 15 6.72 15 15z" fill="#fed843"/><path d="m164.81 71h-69.38v-30h69.38c8.28 0 15 6.72 15 15s-6.72 15-15 15z" fill="#ffbe00"/><path d="m350.43 104c0 34-24.03 62.49-56 69.39v9.25c0 26.67-21.69 48.36-48.36 48.36h-220.47c-8.28 0-15-6.72-15-15s6.72-15 15-15h220.47c10.12 0 18.36-8.24 18.36-18.36v-9.25c-31.97-6.9-56-35.39-56-69.39 0-39.15 31.85-71 71-71s71 31.85 71 71z" fill="#86bfec"/><path d="m95.43 231v-30h150.64c10.12 0 18.36-8.24 18.36-18.36v-9.25c-31.97-6.9-56-35.39-56-69.39 0-39.15 31.85-71 71-71s71 31.85 71 71c0 34-24.03 62.49-56 69.39v9.25c0 26.67-21.69 48.36-48.36 48.36z" fill="#69b0e8"/><path d="m350.43 408c0 39.15-31.85 71-71 71s-71-31.85-71-71c0-34 24.03-62.49 56-69.39v-9.25c0-10.12-8.24-18.36-18.36-18.36h-220.47c-8.28 0-15-6.72-15-15s6.72-15 15-15h220.47c26.67 0 48.36 21.69 48.36 48.36v9.25c31.97 6.9 56 35.39 56 69.39z" fill="#ff6426"/><path d="m350.43 408c0 39.15-31.85 71-71 71s-71-31.85-71-71c0-34 24.03-62.49 56-69.39v-9.25c0-10.12-8.24-18.36-18.36-18.36h-150.64v-30h150.64c26.67 0 48.36 21.69 48.36 48.36v9.25c31.97 6.9 56 35.39 56 69.39z" fill="#cf3b00"/><g fill="#303a6d"><path d="m495.43 335h-88c-8.284 0-15-6.716-15-15s6.716-15 15-15h88c8.284 0 15 6.716 15 15s-6.716 15-15 15z"/><path d="m495.43 399h-88c-8.284 0-15-6.716-15-15s6.716-15 15-15h88c8.284 0 15 6.716 15 15s-6.716 15-15 15z"/><path d="m495.43 463h-88c-8.284 0-15-6.716-15-15s6.716-15 15-15h88c8.284 0 15 6.716 15 15s-6.716 15-15 15z"/><path d="m495.43 79h-88c-8.284 0-15-6.716-15-15s6.716-15 15-15h88c8.284 0 15 6.716 15 15s-6.716 15-15 15z"/><path d="m495.43 143h-88c-8.284 0-15-6.716-15-15s6.716-15 15-15h88c8.284 0 15 6.716 15 15s-6.716 15-15 15z"/><path d="m495.43 207h-88c-8.284 0-15-6.716-15-15s6.716-15 15-15h88c8.284 0 15 6.716 15 15s-6.716 15-15 15z"/></g><path d="m189.29 256c0-54.37-44.67-99.6-69.43-120.5 24.76-20.9 69.43-66.13 69.43-120.5 0-8.28-6.72-15-15-15-8.29 0-15 6.72-15 15 0 45.64-44.76 86.38-63.86 101.69-19.11-15.31-63.86-56.05-63.86-101.69 0-8.28-6.71-15-15-15-8.28 0-15 6.72-15 15 0 54.37 44.67 99.6 69.43 120.5-24.76 20.9-69.43 66.13-69.43 120.5s44.67 99.6 69.43 120.5c-24.76 20.9-69.43 66.13-69.43 120.5 0 8.28 6.72 15 15 15 8.29 0 15-6.72 15-15 0-45.64 44.76-86.38 63.86-101.69 19.11 15.31 63.86 56.05 63.86 101.69 0 8.28 6.71 15 15 15 8.28 0 15-6.72 15-15 0-54.37-44.67-99.6-69.43-120.5 24.76-20.9 69.43-66.13 69.43-120.5zm-93.86 101.69c-19.11-15.31-63.86-56.05-63.86-101.69s44.76-86.38 63.86-101.69c19.11 15.31 63.86 56.05 63.86 101.69s-44.76 86.38-63.86 101.69z" fill="#4d578c"/><path d="m119.86 376.5c24.76 20.9 69.43 66.13 69.43 120.5 0 8.28-6.72 15-15 15-8.29 0-15-6.72-15-15 0-45.64-44.75-86.38-63.86-101.69v-37.62c19.1-15.31 63.86-56.05 63.86-101.69s-44.75-86.38-63.86-101.69v-37.62c19.1-15.31 63.86-56.05 63.86-101.69 0-8.28 6.71-15 15-15 8.28 0 15 6.72 15 15 0 54.37-44.67 99.6-69.43 120.5 24.76 20.9 69.43 66.13 69.43 120.5s-44.67 99.6-69.43 120.5z" fill="#303a6d"/></g></svg>